<svg width="15" height="12" viewBox="0 0 15 12" fill="none" xmlns="http://www.w3.org/2000/svg">
<path d="M7.5 9.75C7.7125 9.75 7.89062 9.67813 8.03438 9.53438C8.17813 9.39062 8.25 9.2125 8.25 9C8.25 8.7875 8.17813 8.60938 8.03438 8.46562C7.89062 8.32187 7.7125 8.25 7.5 8.25C7.2875 8.25 7.10938 8.32187 6.96562 8.46562C6.82187 8.60938 6.75 8.7875 6.75 9C6.75 9.2125 6.82187 9.39062 6.96562 9.53438C7.10938 9.67813 7.2875 9.75 7.5 9.75ZM7.5 6.75C7.7125 6.75 7.89062 6.67813 8.03438 6.53438C8.17813 6.39062 8.25 6.2125 8.25 6C8.25 5.7875 8.17813 5.60938 8.03438 5.46562C7.89062 5.32187 7.7125 5.25 7.5 5.25C7.2875 5.25 7.10938 5.32187 6.96562 5.46562C6.82187 5.60938 6.75 5.7875 6.75 6C6.75 6.2125 6.82187 6.39062 6.96562 6.53438C7.10938 6.67813 7.2875 6.75 7.5 6.75ZM7.5 3.75C7.7125 3.75 7.89062 3.67812 8.03438 3.53437C8.17813 3.39062 8.25 3.2125 8.25 3C8.25 2.7875 8.17813 2.60938 8.03438 2.46563C7.89062 2.32188 7.7125 2.25 7.5 2.25C7.2875 2.25 7.10938 2.32188 6.96562 2.46563C6.82187 2.60938 6.75 2.7875 6.75 3C6.75 3.2125 6.82187 3.39062 6.96562 3.53437C7.10938 3.67812 7.2875 3.75 7.5 3.75ZM13.5 12H1.5C1.0875 12 0.734375 11.8531 0.440625 11.5594C0.146875 11.2656 0 10.9125 0 10.5V7.5C0.4125 7.5 0.765625 7.35312 1.05938 7.05937C1.35313 6.76562 1.5 6.4125 1.5 6C1.5 5.5875 1.35313 5.23438 1.05938 4.94063C0.765625 4.64688 0.4125 4.5 0 4.5V1.5C0 1.0875 0.146875 0.734375 0.440625 0.440625C0.734375 0.146875 1.0875 0 1.5 0H13.5C13.9125 0 14.2656 0.146875 14.5594 0.440625C14.8531 0.734375 15 1.0875 15 1.5V4.5C14.5875 4.5 14.2344 4.64688 13.9406 4.94063C13.6469 5.23438 13.5 5.5875 13.5 6C13.5 6.4125 13.6469 6.76562 13.9406 7.05937C14.2344 7.35312 14.5875 7.5 15 7.5V10.5C15 10.9125 14.8531 11.2656 14.5594 11.5594C14.2656 11.8531 13.9125 12 13.5 12ZM13.5 10.5V8.5875C13.0375 8.3125 12.6719 7.94688 12.4031 7.49062C12.1344 7.03437 12 6.5375 12 6C12 5.4625 12.1344 4.96563 12.4031 4.50938C12.6719 4.05312 13.0375 3.6875 13.5 3.4125V1.5H1.5V3.4125C1.9625 3.6875 2.32812 4.05312 2.59687 4.50938C2.86562 4.96563 3 5.4625 3 6C3 6.5375 2.86562 7.03437 2.59687 7.49062C2.32812 7.94688 1.9625 8.3125 1.5 8.5875V10.5H13.5Z" fill="#444651"/>
</svg>
