<svg width="13" height="15" viewBox="0 0 13 15" fill="none" xmlns="http://www.w3.org/2000/svg">
<path d="M1.125 15V9.375H0V5.25C0 4.8375 0.146875 4.48438 0.440625 4.19063C0.734375 3.89688 1.0875 3.75 1.5 3.75H3.75C4.1625 3.75 4.51562 3.89688 4.80937 4.19063C5.10312 4.48438 5.25 4.8375 5.25 5.25V9.375H4.125V15H1.125ZM2.625 3C2.2125 3 1.85938 2.85313 1.56562 2.55938C1.27187 2.26562 1.125 1.9125 1.125 1.5C1.125 1.0875 1.27187 0.734375 1.56562 0.440625C1.85938 0.146875 2.2125 0 2.625 0C3.0375 0 3.39062 0.146875 3.68438 0.440625C3.97813 0.734375 4.125 1.0875 4.125 1.5C4.125 1.9125 3.97813 2.26562 3.68438 2.55938C3.39062 2.85313 3.0375 3 2.625 3ZM8.25 15V10.5H6L7.9125 4.7625C8.0125 4.4375 8.19687 4.1875 8.46562 4.0125C8.73438 3.8375 9.0375 3.75 9.375 3.75C9.7125 3.75 10.0156 3.8375 10.2844 4.0125C10.5531 4.1875 10.7375 4.4375 10.8375 4.7625L12.75 10.5H10.5V15H8.25ZM9.375 3C8.9625 3 8.60938 2.85313 8.31563 2.55938C8.02188 2.26562 7.875 1.9125 7.875 1.5C7.875 1.0875 8.02188 0.734375 8.31563 0.440625C8.60938 0.146875 8.9625 0 9.375 0C9.7875 0 10.1406 0.146875 10.4344 0.440625C10.7281 0.734375 10.875 1.0875 10.875 1.5C10.875 1.9125 10.7281 2.26562 10.4344 2.55938C10.1406 2.85313 9.7875 3 9.375 3Z" fill="#1E3A8A"/>
</svg>
